<svg width="230" height="120" viewBox="0 0 230 120" fill="none" xmlns="http://www.w3.org/2000/svg">
<g id="logo_new 2">
<path id="Vector" d="M40.5001 91.9051C43.0695 92.8493 47.0778 84.2464 45.9473 82.3579C45.8445 82.253 45.639 82.1481 45.5362 82.1481C43.2751 82.1481 40.5001 87.4987 39.6779 89.2822C39.4724 89.597 39.4724 90.0166 39.4724 90.2265C39.4724 90.9609 39.7807 91.6953 40.5001 91.9051ZM38.7529 91.2756C38.6501 91.2756 38.6501 91.2756 38.7529 91.2756L37.7252 93.3739C37.7252 93.4788 37.5196 93.4788 37.4168 93.4788C37.1085 93.1641 36.9029 92.7444 36.9029 92.3248C36.9029 92.2198 36.8002 92.2198 36.8002 92.3248C35.4641 93.5837 31.9697 94.528 31.353 91.8002C31.0447 90.3314 31.5586 89.0724 32.278 87.6036C32.6891 86.5545 35.1557 81.4137 36.0807 81.0989C36.1835 81.0989 36.1835 81.0989 36.2863 81.0989C37.4168 82.0432 36.6974 84.1414 36.0807 85.1906C34.8474 87.4987 33.5113 89.597 33.4085 91.5904C33.3058 93.4788 35.2585 92.3248 35.7724 91.8002C36.4918 91.0658 37.0057 90.4363 37.4168 89.3872C39.164 85.0857 41.4251 80.8891 43.8918 76.5876C44.714 75.1188 45.4334 73.8598 46.2556 72.7058C46.4612 72.391 46.7695 72.391 46.9751 72.7058C47.6945 74.0697 47.0778 75.9581 46.3584 77.2171C45.5362 78.7908 44.6112 80.3645 43.6862 81.9382V82.0432H43.789C44.5084 81.3088 45.4334 80.8891 46.4612 80.8891C50.9834 81.2038 46.6667 94.3181 41.4251 93.3739C40.089 93.1641 39.2668 92.4297 38.7529 91.2756Z" fill="#D2AB67"/>
<path id="Vector_2" d="M209.465 77.0071C206.895 80.0496 204.531 83.302 202.373 86.7641V86.8691L207.306 86.3445C207.409 86.3445 207.409 86.2396 207.409 86.2396C207.82 83.0921 208.54 80.0496 209.465 77.112C209.67 76.9022 209.67 76.9022 209.465 77.0071C209.567 76.9022 209.465 76.9022 209.465 77.0071ZM200.112 86.7641C202.065 83.302 204.326 80.0496 206.792 76.9022C207.717 75.7481 208.848 74.4892 209.978 73.6499C210.698 73.0204 211.109 73.7548 211.417 74.2793C212.034 75.3285 212.034 76.1678 211.726 77.4268C210.801 80.2595 210.081 83.1971 209.567 86.2396C209.567 86.3445 209.567 86.4494 209.67 86.4494C210.39 86.7641 210.801 87.2887 210.903 88.0231C210.903 88.128 210.801 88.2329 210.698 88.2329L209.362 88.0231C209.259 88.0231 209.259 88.0231 209.259 88.128C209.053 89.7017 208.848 91.2755 208.848 92.9541C208.848 93.1639 208.745 93.2688 208.642 93.3737C208.54 93.4787 208.334 93.4787 208.128 93.2688C206.895 92.2197 207.101 89.7017 207.306 88.3379C207.306 88.2329 207.203 88.128 207.203 88.128L201.242 88.6526C201.242 88.6526 201.242 88.6526 201.14 88.6526L198.879 93.1639C198.776 93.3737 198.57 93.3737 198.467 93.1639C197.542 92.0099 198.673 89.4919 199.392 88.2329V88.128C198.879 87.8133 198.57 87.4985 198.365 86.974C198.262 86.7641 198.467 86.6592 198.57 86.6592L200.009 86.8691C199.906 86.8691 200.009 86.8691 200.112 86.7641Z" fill="#D2AB67"/>
<path id="Vector_3" d="M200.006 75.7479C199.081 75.4331 196.409 76.4823 195.176 77.0069L195.073 77.1118C194.97 78.056 194.662 78.8953 194.251 79.7346C193.326 81.5182 192.401 83.1968 191.373 84.8754C191.373 84.8754 191.373 84.9804 191.476 84.9804C195.073 84.3509 198.053 82.5673 200.109 79.5248C200.828 78.5806 201.65 76.2725 200.006 75.7479ZM190.345 86.8688L187.467 93.2686C187.467 93.3735 187.364 93.3735 187.364 93.3735C187.159 93.3735 187.056 93.2686 186.953 93.0588C186.131 91.485 186.953 89.2818 187.57 87.813C189.112 84.141 190.962 80.5739 193.017 77.2167C193.017 77.1118 193.017 77.1118 192.914 77.0069C191.989 76.902 191.373 76.3774 191.064 75.5381C190.962 75.3282 191.064 75.2233 191.27 75.1184C193.017 74.9086 194.662 74.2791 196.306 73.8594C198.773 73.125 201.034 73.2299 201.959 76.0626C202.37 77.1118 202.37 78.1609 202.062 79.2101C200.828 83.4066 196.614 86.0295 192.709 86.9737C191.887 87.1836 191.064 87.1836 190.345 86.8688Z" fill="#D2AB67"/>
<path id="Vector_4" d="M32.6895 77.6366C32.7923 76.9022 32.484 75.7481 31.559 75.6432C30.1201 75.5383 28.2701 76.3776 26.934 76.7973L26.8313 76.9022C26.4201 79.525 24.5702 82.1479 23.2341 84.5609C23.2341 84.6658 23.2341 84.6658 23.3368 84.6658C26.7285 83.9314 29.709 82.3577 31.8673 79.525C32.2784 79.0005 32.5867 78.371 32.6895 77.6366ZM22.0007 87.1838L19.3285 93.3737C19.2258 93.4786 19.0202 93.5836 18.9174 93.3737C17.8897 91.9049 18.6091 89.8066 19.2258 88.3378C20.7674 84.456 22.7202 80.784 24.8785 77.2169C24.8785 77.2169 24.8785 77.112 24.7757 77.112C23.9535 77.0071 23.3368 76.5874 22.9257 75.853C22.823 75.6432 22.9257 75.4334 23.1313 75.4334C24.5702 75.2235 25.9063 74.8039 27.2424 74.3842C29.4007 73.6498 32.2784 72.9154 33.5117 75.5383C36.3895 81.3086 28.8868 85.5052 24.6729 86.5543C24.5702 86.5543 24.5702 86.6592 24.5702 86.7641C25.4952 87.9182 26.3174 89.0722 27.1396 90.4361C27.7562 91.4853 28.0646 92.4295 27.5507 93.5836C27.4479 93.7934 27.2424 93.7934 27.1396 93.5836C25.5979 91.2754 23.9535 89.1772 22.2063 87.0789C22.2063 86.974 22.0007 87.0789 22.0007 87.1838Z" fill="#D2AB67"/>
<path id="Vector_5" d="M101.752 76.6921C101.239 74.5938 97.2303 76.4823 95.9969 76.902C95.8942 76.902 95.8942 77.0069 95.8942 77.0069C95.7914 78.056 95.483 78.8953 95.0719 79.6297C94.147 81.3084 93.222 82.987 92.297 84.5607C92.297 84.6656 92.297 84.6656 92.3997 84.6656C95.6886 83.9312 98.7719 82.3575 100.827 79.5248C101.547 78.7904 101.958 77.7413 101.752 76.6921ZM93.9414 77.2167C93.9414 77.1118 93.9414 77.1118 93.8386 77.1118C93.0164 77.0069 92.3997 76.5872 91.9886 75.8528C91.8859 75.643 91.9886 75.4332 92.1942 75.4332C94.147 75.1184 96.0997 74.4889 97.9497 73.9643C99.5941 73.5447 101.444 73.6496 102.369 75.2233C105.761 81.0985 98.0525 85.5049 93.6331 86.659C93.5303 86.659 93.5303 86.7639 93.5303 86.8688C94.7636 88.3376 97.5386 91.6949 96.408 93.6882C96.3053 93.7932 96.0997 93.8981 95.9969 93.6882C94.6608 91.2752 93.0164 89.1769 91.2692 87.0786C91.1664 86.9737 91.0636 87.0786 91.0636 87.0786L88.3915 93.2686C88.2887 93.3735 88.1859 93.4784 88.0831 93.3735C86.5415 91.9047 88.597 87.6032 89.3164 86.1344C90.6525 82.987 92.1942 80.0494 93.9414 77.2167Z" fill="#D2AB67"/>
<path id="Vector_6" d="M187.673 75.6433C185.823 75.0138 181.918 78.4759 180.685 79.9447C179.348 81.4135 178.012 83.6168 180.068 85.2954C181.301 86.3445 182.432 86.974 183.768 87.7084C185.104 88.5477 185.823 89.1772 185.104 90.8558C184.179 92.9541 182.329 93.6885 180.273 93.6885C177.293 93.6885 174.724 91.8001 172.874 89.5969C172.771 89.492 172.668 89.2821 172.668 89.1772C172.668 89.0723 172.668 89.0723 172.668 88.9674C173.079 88.4428 174.518 88.6526 175.032 88.8625C175.34 88.9674 175.854 89.2821 176.471 89.8067C177.704 90.7509 179.246 91.8001 180.89 92.0099C181.712 92.1148 183.151 91.905 183.46 90.9608C184.282 88.8625 175.443 87.2888 176.779 81.8332C177.498 78.8956 179.965 76.3777 182.432 74.9089C184.796 73.4401 187.673 72.286 189.318 75.7482C190.14 77.5317 189.523 78.5809 188.496 80.1546C187.776 81.3086 187.159 82.3578 186.646 83.302C186.44 83.7217 186.132 83.6168 185.926 83.302C184.796 82.043 185.515 80.4693 186.234 79.3153C186.748 78.4759 188.29 76.2728 187.879 75.5383C187.776 75.7482 187.776 75.6433 187.673 75.6433Z" fill="#D2AB67"/>
<path id="Vector_7" d="M111.517 89.7019C111.62 90.5412 112.648 92.9542 113.881 92.4296C115.32 91.8002 114.806 86.1348 114.703 84.7709C114.703 84.7709 114.6 84.666 114.6 84.7709C113.675 86.4495 112.648 88.0232 111.62 89.4921C111.517 89.4921 111.517 89.597 111.517 89.7019ZM121.589 92.01C122 92.3247 122.514 92.3247 123.028 92.01C124.878 90.751 126.111 88.4429 126.831 86.3446C126.831 86.2397 126.831 86.2397 126.728 86.1348C125.7 85.5053 125.084 84.4562 124.878 83.3021C124.878 83.3021 124.775 83.1972 124.775 83.3021C122.925 85.0856 121.692 87.1839 121.281 89.8068C121.178 90.3314 121.075 91.6952 121.589 92.01ZM126.625 82.6726C126.214 83.6168 126.42 84.4562 127.036 85.1906C127.139 85.2955 127.139 85.1906 127.139 85.1906C127.242 84.7709 127.447 82.7775 126.934 82.5677C126.831 82.4628 126.625 82.5677 126.625 82.6726ZM103.603 87.079C105.864 88.2331 108.023 84.3512 108.434 82.6726C108.434 82.4628 108.434 82.3579 108.331 82.253C107.817 81.7284 106.481 82.7775 106.173 83.1972C105.042 84.2463 104.22 85.5053 103.5 86.9741C103.5 86.9741 103.5 87.079 103.603 87.079ZM142.35 80.8891C141.836 80.8891 140.089 80.4694 140.397 79.6301C140.397 79.5252 140.603 79.4203 140.706 79.4203C141.631 79.4203 142.453 79.4203 143.275 79.3154C143.378 79.3154 143.378 79.3154 143.378 79.2104C144.097 77.9515 144.919 76.1679 145.844 75.2237C145.947 75.1188 146.256 75.1188 146.358 75.3286C146.872 76.4827 146.564 77.7416 146.05 78.7908C146.05 78.8957 146.05 78.8957 146.153 78.8957C146.975 79.0006 147.694 79.2104 148.003 80.0498C148.106 80.3645 147.797 80.4694 147.592 80.4694C146.872 80.4694 146.05 80.4694 145.331 80.5743C145.228 80.5743 145.228 80.5743 145.228 80.6792C143.892 82.9874 142.658 85.2955 141.425 87.7085C140.808 89.0724 140.295 90.3314 140.603 91.5903C140.706 92.2198 141.117 92.5346 141.631 92.6395C143.481 92.8493 145.433 89.3871 146.05 88.0232C146.153 87.8134 146.461 87.8134 146.564 88.0232C146.975 88.6527 146.461 89.7019 146.153 90.3314C145.228 91.8002 143.789 93.3739 142.144 93.5837C140.5 93.7935 139.472 93.1641 138.958 91.5903C138.958 91.4854 138.856 91.4854 138.856 91.5903C137.931 92.9542 136.492 93.8985 134.95 93.6886C133.922 93.5837 133.203 93.0591 132.792 92.1149C131.456 89.1773 134.539 85.1906 136.389 83.1972V83.0923H136.286C135.258 83.7218 134.128 84.1414 132.895 84.1414C132.895 84.1414 132.792 84.1414 132.792 84.2463C131.97 85.7151 130.736 86.5544 129.092 86.7643C129.092 86.7643 128.989 86.7643 128.989 86.8692C128.372 89.2822 126.831 92.3247 124.364 93.269C122.411 94.1083 120.459 92.9542 119.842 90.9608C119.842 90.9608 119.739 90.8559 119.739 90.9608C118.506 92.5346 116.964 93.4788 115.011 93.5837C113.059 93.7935 111.106 93.0591 110.284 91.1707C110.284 91.0658 110.181 91.0658 110.078 91.1707C107.509 93.8985 101.342 95.3672 100.725 89.9117C100.52 87.8134 101.548 85.5053 102.884 83.7218C103.912 82.3579 105.864 80.4694 107.612 80.7842C108.537 80.8891 110.284 82.3579 110.386 83.3021C110.592 85.4004 108.742 88.0232 106.687 88.6527C105.556 88.9675 104.528 88.7577 103.603 87.9183C103.5 87.8134 103.5 87.9183 103.398 87.9183C102.781 89.597 102.473 92.9542 105.248 92.7444C107.2 92.5346 108.639 91.1707 109.77 89.8068C109.77 89.8068 109.873 89.7019 109.77 89.597C109.667 88.4429 109.975 87.6036 110.798 86.8692C111.003 86.6594 111.311 86.8692 111.311 87.079V87.8134C111.311 87.9183 111.414 87.9183 111.414 87.8134C112.545 86.2397 113.573 84.666 114.6 82.9874C114.703 82.7775 114.806 82.5677 114.909 82.253C115.114 81.0989 115.731 80.0498 116.861 79.6301C117.067 79.5252 117.17 79.5252 117.375 79.6301C118.095 79.8399 117.478 80.994 117.273 81.4136C117.17 81.6235 117.067 81.8333 117.067 82.0431C116.964 83.9316 117.17 85.925 117.375 87.8134C117.478 89.2822 117.375 90.8559 116.553 92.01L116.45 92.1149C116.348 92.1149 116.348 92.2198 116.348 92.3247C116.348 92.4296 116.348 92.4296 116.45 92.4296C117.684 91.6952 119.534 90.2264 119.739 88.7576C120.15 85.6102 122.206 81.9382 125.392 81.0989C126.214 80.8891 126.934 81.0989 127.55 81.7284C128.784 83.0923 129.606 83.7218 129.297 85.925C129.297 86.0299 129.4 86.0299 129.4 86.0299C130.325 85.7151 131.147 85.0856 131.558 84.1414V84.0365C128.372 82.148 136.595 74.3844 133.511 82.6726C133.511 82.7775 133.511 82.7775 133.614 82.7775C134.95 82.4628 135.978 81.7284 137.211 81.0989C137.314 80.994 137.52 81.0989 137.725 81.2038C138.445 81.9382 138.958 83.407 138.239 84.2463C136.8 86.1348 134.231 89.0724 134.436 91.5903C134.539 92.2198 134.745 92.5346 135.156 92.7444C137.006 93.269 138.753 89.3871 139.267 88.1282C140.192 85.7151 141.425 83.407 142.556 81.0989C142.453 80.8891 142.453 80.8891 142.35 80.8891Z" fill="#D2AB67"/>
<path id="Vector_8" d="M38.0339 80.9941C37.4172 81.099 36.6978 80.5744 36.4922 79.6302C36.2866 78.686 36.595 77.8467 37.3144 77.7418C37.9311 77.6368 38.6505 78.1614 38.8561 79.1056C39.0616 80.0499 38.7533 80.8892 38.0339 80.9941Z" fill="#D2AB67"/>
<path id="Vector_9" d="M70.1978 91.8C70.3006 92.954 71.6367 92.3245 72.1506 91.9049C72.87 91.2754 73.5894 90.4361 74.2061 89.3869C75.0283 88.128 77.9061 83.4068 76.7755 82.3577H76.6727C76.1589 82.3577 75.8505 82.4626 75.5422 82.7773C73.1783 84.456 69.8895 88.5476 70.1978 91.8ZM51.4924 87.0788C52.9313 87.6034 53.6508 86.9739 54.5757 85.8198C55.2952 84.9805 56.2202 83.6166 56.3229 82.4626C56.3229 82.2528 56.1174 82.0429 55.9118 82.0429C54.1646 82.1478 52.0063 85.4002 51.3897 86.869C51.3897 86.9739 51.3897 87.0788 51.4924 87.0788ZM65.2645 83.0921C64.3395 83.6166 63.209 83.9314 62.0784 84.0363C61.9757 84.0363 61.9757 84.0363 61.9757 84.1412C60.2285 87.9181 56.2202 94.7376 51.0813 93.3737C49.9508 93.0589 49.1286 92.2196 48.7175 91.1705C47.8953 89.0722 48.5119 87.0788 49.6425 85.0854C50.6702 83.3019 53.548 79.8397 55.8091 81.0987C56.8368 81.6233 58.0702 82.6724 57.8646 84.0363C57.5563 85.8198 56.7341 87.1837 55.2952 88.2329C53.8563 89.282 52.4174 88.9673 51.1841 88.023C51.0813 87.9181 50.9786 88.023 50.9786 88.128C50.2591 90.541 50.3619 93.7933 53.9591 92.6393C56.8368 91.695 59.6118 86.869 60.7423 84.2461C60.7423 84.1412 60.7423 84.1412 60.7423 84.1412C58.3785 83.0921 62.0784 78.0562 63.1062 79.1053C63.7229 79.6299 62.9007 82.0429 62.5923 82.6724C62.5923 82.7773 62.5923 82.7773 62.6951 82.7773C63.9284 82.4626 65.1617 81.938 66.1895 81.0987C66.3951 80.9938 66.6006 80.9938 66.7034 81.0987C67.5256 81.938 68.0395 83.4068 67.1145 84.456C65.5729 86.2395 63.4145 88.8624 63.4145 91.5901C63.4145 91.8 63.5173 92.0098 63.6201 92.2196C64.2368 93.2688 65.5729 92.4294 66.0867 91.8C66.9089 90.8557 67.6284 89.8066 68.0395 88.6525C68.7589 86.7641 69.8895 85.0854 71.4311 83.4068C72.5617 82.1478 74.5144 80.5741 76.2616 80.784C77.1866 80.8889 77.8033 81.5184 77.9061 82.7773C77.9061 82.8822 78.0088 82.8822 78.0088 82.7773C78.3172 82.1478 78.6255 81.6233 79.0366 80.9938C79.3449 80.5741 79.6533 80.5741 79.8588 80.9938C80.9894 83.197 78.6255 86.3444 77.5977 88.128C77.0838 89.0722 75.8505 91.3803 76.3644 92.4294C76.7755 93.1638 78.0088 92.4294 78.4199 92.0098C79.4477 90.9606 80.3727 89.7017 80.9894 88.3378C81.0921 88.128 81.4005 88.128 81.5032 88.3378C81.7088 88.9673 81.606 89.5968 81.2977 90.1213C80.4755 91.9049 78.4199 94.0032 76.2616 93.5835C75.0283 93.3737 74.3089 92.5344 74.3089 91.2754C74.3089 91.1705 74.2061 91.1705 74.2061 91.2754C72.7672 93.1638 69.17 95.1572 68.1423 91.5901C68.1423 91.4852 68.0395 91.4852 68.0395 91.5901C66.7034 93.0589 65.059 94.3179 63.1062 93.2688C61.1535 92.2196 61.5646 89.3869 62.4895 87.6034C63.3118 86.0297 64.3395 84.5609 65.4701 83.3019C65.6756 82.9872 65.5728 82.8822 65.2645 83.0921Z" fill="#D2AB67"/>
<path id="Vector_10" d="M155.3 90.0168C155.197 91.2758 156.533 92.1151 157.561 92.22C158.588 92.3249 159.925 91.8004 160.85 91.2758C160.952 91.1709 160.952 91.1709 160.85 91.066C160.438 90.6463 159.925 90.2267 159.513 89.807C158.691 88.9677 158.177 87.9185 157.561 86.9743C157.561 86.9743 157.458 86.8694 157.458 86.9743C156.43 87.4989 155.505 88.7579 155.3 90.0168ZM159.822 80.2598C159 79.6303 158.486 80.6795 158.486 81.3089C158.383 82.2532 158.383 83.3023 158.486 84.2465C158.486 84.3515 158.588 84.3515 158.588 84.3515C159.616 83.5121 161.363 81.4139 159.822 80.2598ZM164.036 86.9743C163.316 86.8694 161.877 87.0792 161.775 85.9252C161.775 85.1908 162.802 85.0859 163.316 85.2957C164.858 85.8203 166.399 85.5055 167.838 85.2957C168.147 85.2957 168.455 85.2957 168.763 85.4006C168.969 85.5055 169.072 85.7153 168.969 85.9252C168.455 87.0792 166.091 86.2399 165.577 87.4989C165.063 88.6529 164.447 89.5972 163.83 90.5414C163.727 90.6463 163.727 90.8561 163.933 90.9611C164.55 91.2758 165.063 91.4856 165.68 91.4856C166.194 91.4856 168.558 90.8561 168.455 91.8004C168.455 91.9053 168.455 91.9053 168.352 91.9053C167.222 93.1643 165.68 93.0593 164.138 92.6397C163.522 92.4299 162.905 91.9053 162.186 91.6955C162.083 91.6955 162.083 91.6955 161.98 91.6955C160.233 92.8495 158.691 93.7937 156.533 93.3741C154.683 92.9544 153.039 91.3807 153.552 89.2824C154.066 87.394 155.3 86.2399 156.841 85.2957C156.944 85.1908 157.047 85.0859 157.047 84.9809C156.944 82.9876 156.122 79.1057 159.102 78.4763C160.233 78.2664 160.952 78.791 161.466 79.8401C162.391 82.1483 160.747 83.722 158.897 85.2957L158.794 85.4006C158.486 86.6596 161.261 89.3873 162.186 90.0168C162.288 90.0168 162.288 90.0168 162.391 90.0168C163.111 89.5972 163.83 87.4989 164.036 86.8694C164.138 87.0792 164.138 86.9743 164.036 86.9743Z" fill="#D2AB67"/>
<path id="Vector_11" d="M121.691 104.285C120.972 106.278 121.177 110.894 124.466 110.475C126.83 110.16 127.035 107.432 126.727 105.439C126.419 103.76 125.597 102.921 124.261 102.711C123.13 102.606 122.102 103.13 121.691 104.285ZM123.644 111.209C118.402 110.894 118.505 101.557 124.672 102.081C128.269 102.396 129.091 106.698 127.549 109.32C126.727 110.684 125.494 111.314 123.644 111.209Z" fill="#D2AB67"/>
<path id="Vector_12" d="M106.892 103.76L105.658 106.908V107.013H108.022C108.022 107.013 108.125 107.013 108.022 106.908L106.892 103.76ZM108.33 107.957H105.35C105.35 107.957 105.247 107.957 105.247 108.062L104.528 110.16V110.265L105.35 110.58C105.453 110.58 105.555 110.789 105.555 110.894C105.555 110.999 105.453 111.104 105.247 111.104H102.986C102.883 111.104 102.781 110.999 102.678 110.894C102.678 110.789 102.781 110.58 102.883 110.58C103.294 110.475 103.603 110.37 103.706 109.845C104.63 107.327 105.555 104.704 106.686 102.291C106.892 101.872 107.405 101.977 107.611 102.291C108.536 104.809 109.564 107.327 110.592 109.95C110.694 110.265 111.003 110.37 111.414 110.37C111.517 110.37 111.517 110.475 111.517 110.475V110.894C111.517 110.999 111.517 110.999 111.414 110.999H108.536C108.433 110.999 108.33 110.894 108.228 110.789C108.228 110.685 108.33 110.58 108.433 110.475L109.153 110.265C109.255 110.265 109.255 110.16 109.255 110.055L108.433 108.062C108.433 107.957 108.433 107.957 108.33 107.957Z" fill="#D2AB67"/>
<path id="Vector_13" d="M146.976 103.761L145.743 106.908V107.013H148.107C148.107 107.013 148.21 107.013 148.107 106.908L146.976 103.761ZM148.415 107.957H145.435C145.435 107.957 145.332 107.957 145.332 108.062L144.612 110.055C144.612 110.16 144.612 110.16 144.715 110.16L145.537 110.475C145.64 110.475 145.743 110.685 145.743 110.79C145.743 110.895 145.64 111 145.435 111H143.174C143.071 111 142.968 110.895 142.865 110.79C142.865 110.685 142.968 110.475 143.071 110.475C143.482 110.37 143.79 110.16 143.893 109.741C144.818 107.223 145.743 104.6 146.874 102.292C147.079 101.872 147.593 101.872 147.799 102.292L150.779 110.055C150.779 110.16 150.882 110.16 150.882 110.265L151.498 110.475C151.601 110.475 151.601 110.58 151.601 110.58V110.895C151.601 111 151.601 111 151.498 111H148.621C148.518 111 148.415 110.895 148.312 110.79C148.312 110.685 148.415 110.58 148.518 110.475L149.237 110.265C149.34 110.265 149.34 110.16 149.34 110.055L148.518 107.957C148.518 107.957 148.518 107.957 148.415 107.957Z" fill="#D2AB67"/>
<path id="Vector_14" d="M98.4654 103.131V106.383C98.4654 106.488 98.5682 106.593 98.671 106.593H99.6987C100.624 106.593 101.343 105.859 101.343 104.914V104.6C101.343 103.655 100.624 102.921 99.6987 102.921H98.671C98.5682 102.921 98.4654 103.026 98.4654 103.131ZM98.4654 107.222V109.95C98.4654 110.16 98.5682 110.265 98.7738 110.265L99.596 110.475C99.6987 110.475 99.8015 110.685 99.8015 110.79C99.8015 110.894 99.6988 110.999 99.4932 110.999H96.2043C96.1016 110.999 96.1016 110.999 96.1016 110.894V110.58C96.1016 110.58 96.1016 110.475 96.2043 110.475L97.1293 110.16C97.2321 110.16 97.2321 110.055 97.2321 110.055V103.131C97.2321 103.026 97.2321 103.026 97.1293 103.026L96.2043 102.711C96.1016 102.711 96.1016 102.606 96.1016 102.606V102.396C96.1016 102.292 96.1016 102.292 96.2043 102.292C97.4377 102.292 98.5682 102.292 99.8015 102.292C104.221 102.292 103.296 107.957 99.596 107.537C99.2876 107.537 98.8765 107.327 98.5682 107.222C98.5682 107.118 98.4654 107.118 98.4654 107.222Z" fill="#D2AB67"/>
<path id="Vector_15" d="M84.2824 102.921H81.3018C81.3018 102.921 81.1991 102.921 81.1991 103.026V105.859C81.1991 105.963 81.1991 105.963 81.3018 105.963H83.1518C83.2546 105.963 83.2546 105.963 83.2546 105.859L83.4601 104.914C83.4601 104.809 83.5629 104.809 83.5629 104.809H83.974C84.0768 104.809 84.0768 104.809 84.0768 104.914V107.642C84.0768 107.852 83.974 107.957 83.7685 107.957C83.5629 107.957 83.4601 107.852 83.4601 107.642C83.4601 107.327 83.3574 107.117 83.3574 106.908C83.3574 106.803 83.2546 106.698 83.049 106.698H81.4046C81.3018 106.698 81.1991 106.803 81.1991 106.908V110.055C81.1991 110.055 81.1991 110.16 81.3018 110.16H84.6935C84.7962 110.16 84.899 110.055 84.899 109.95L85.1046 108.691C85.1046 108.691 85.1046 108.586 85.2074 108.586H85.7212C85.824 108.586 85.824 108.586 85.824 108.691V110.894C85.824 110.894 85.824 110.999 85.7212 110.999H79.0408C78.938 110.999 78.8352 110.894 78.7324 110.789C78.7324 110.685 78.8352 110.58 78.938 110.475L79.7602 110.265C79.863 110.265 79.9657 110.055 79.9657 109.95V103.131C79.9657 103.026 79.9657 103.026 79.863 103.026L78.938 102.711C78.8352 102.711 78.7324 102.501 78.7324 102.396C78.7324 102.291 78.8352 102.187 78.938 102.187H85.3101C85.4129 102.187 85.4129 102.187 85.4129 102.291V104.285C85.4129 104.39 85.4129 104.39 85.3101 104.39H84.7962C84.6935 104.39 84.6935 104.39 84.6935 104.285L84.4879 103.131C84.4879 103.026 84.3851 102.921 84.2824 102.921Z" fill="#D2AB67"/>
<path id="Vector_16" d="M93.6373 102.921L92.815 102.606C92.5067 102.501 92.6095 102.082 92.9178 102.082H95.1789C95.4872 102.082 95.59 102.501 95.2817 102.606L94.665 102.921C94.5622 102.921 94.5622 103.026 94.5622 103.026C93.5345 105.649 92.6095 108.271 91.4789 110.789C91.2734 111.209 90.7595 111.209 90.5539 110.789L87.5734 103.131C87.5734 103.026 87.4706 103.026 87.4706 103.026C87.2651 102.921 87.0595 102.816 86.854 102.711C86.7512 102.711 86.6484 102.606 86.6484 102.396C86.6484 102.291 86.7512 102.186 86.9568 102.186H89.7317C89.8345 102.186 89.9373 102.291 89.9373 102.396C89.9373 102.501 89.9373 102.606 89.7317 102.711L88.9095 103.026C88.8067 103.026 88.8067 103.131 88.8067 103.131L91.1706 109.426H91.2734L93.6373 103.236C93.74 103.026 93.6373 103.026 93.6373 102.921Z" fill="#D2AB67"/>
<path id="Vector_17" d="M114.398 102.921H112.548C112.445 102.921 112.239 103.026 112.239 103.131L112.034 104.39C112.034 104.495 112.034 104.495 111.931 104.495H111.417C111.314 104.495 111.314 104.495 111.314 104.39V102.291C111.314 102.187 111.314 102.187 111.417 102.187H118.92C119.023 102.187 119.023 102.187 119.023 102.291V104.39C119.023 104.495 119.023 104.495 118.92 104.495H118.406C118.303 104.495 118.303 104.495 118.303 104.39L118.098 103.131C118.098 103.026 117.995 103.026 117.892 103.026H115.939C115.837 103.026 115.837 103.026 115.837 103.131V110.055C115.837 110.16 115.939 110.265 116.042 110.37L116.967 110.685C117.07 110.685 117.173 110.894 117.173 110.999C117.173 111.104 117.07 111.209 116.864 111.209H113.473C113.37 111.209 113.37 111.209 113.37 111.104V110.789C113.37 110.685 113.37 110.685 113.473 110.685L114.501 110.37C114.603 110.37 114.603 110.265 114.603 110.16L114.398 102.921Z" fill="#D2AB67"/>
<path id="Vector_18" d="M131.972 103.131V106.278C131.972 106.383 132.075 106.488 132.177 106.488H133.205C134.13 106.488 134.952 105.754 134.952 104.809V104.704C134.952 103.76 134.233 103.026 133.205 103.026H132.177C132.075 102.921 131.972 103.026 131.972 103.131ZM131.972 107.117V110.055C131.972 110.16 131.972 110.16 132.075 110.16C132.383 110.37 133.411 110.37 133.102 110.894L133 110.999H129.608C129.505 110.999 129.505 110.999 129.505 110.894V110.58C129.505 110.58 129.505 110.475 129.608 110.475L130.533 110.16C130.636 110.16 130.636 110.055 130.636 109.95V103.236C130.636 103.131 130.533 103.026 130.43 102.921L129.608 102.606C129.505 102.606 129.402 102.396 129.402 102.291C129.402 102.186 129.505 102.082 129.608 102.082C130.738 102.082 131.869 102.082 133 102.082C134.13 102.082 135.569 102.291 135.98 103.55C136.391 104.914 135.672 106.173 134.336 106.593C134.233 106.593 134.233 106.698 134.233 106.803C134.85 107.642 135.569 108.586 136.186 109.426C136.597 109.95 137.008 110.16 137.522 110.265C137.624 110.265 137.727 110.37 137.727 110.58C137.727 110.685 137.624 110.789 137.419 110.894C136.905 110.894 135.569 111.104 135.158 110.475C134.336 109.426 133.513 108.271 132.794 107.117L132.691 107.013L131.972 107.117C132.075 107.013 131.972 107.013 131.972 107.117Z" fill="#D2AB67"/>
<path id="Vector_19" d="M138.651 102.711C138.548 102.711 138.445 102.501 138.445 102.396C138.445 102.291 138.548 102.187 138.651 102.187H141.94C142.042 102.187 142.145 102.291 142.145 102.396C142.145 102.501 142.145 102.606 141.94 102.711L141.015 103.026C140.912 103.026 140.912 103.131 140.912 103.131V109.95C140.912 110.055 140.912 110.055 141.015 110.055L141.94 110.37C142.042 110.37 142.145 110.58 142.145 110.685C142.145 110.789 142.042 110.894 141.837 110.894H138.651C138.548 110.894 138.548 110.894 138.548 110.789V110.475C138.548 110.37 138.548 110.37 138.651 110.37L139.679 110.055C139.781 110.055 139.781 109.95 139.781 109.95V103.026C139.781 102.921 139.781 102.921 139.679 102.921L138.651 102.711Z" fill="#D2AB67"/>
<path id="Vector_20" d="M144.407 6.81925C143.482 6.60942 142.968 5.87502 142.66 4.93079C142.146 3.35708 141.735 1.67845 141.221 0.104734C141.221 0.104734 141.221 -0.000180263 141.323 0.104734C142.865 0.839134 144.304 1.57353 145.846 2.41285C146.565 2.83251 147.079 3.35708 147.285 4.09148C147.49 5.03571 147.387 6.50451 147.285 7.55365C147.285 7.55365 147.285 7.65857 147.182 7.65857C146.257 7.34382 145.332 7.02908 144.407 6.81925Z" fill="#D2AB67"/>
<path id="Vector_21" d="M150.369 5.45557C150.472 5.45557 150.472 5.45557 150.369 5.45557C150.78 6.60962 151.089 7.65877 151.397 8.70791C152.014 10.5964 150.986 11.1209 149.65 12.1701H149.547C149.342 11.8553 149.136 11.4357 148.93 11.1209C148.417 10.1767 148.005 9.54722 148.519 8.603C149.239 7.55385 149.855 6.50471 150.369 5.45557Z" fill="#D2AB67"/>
<path id="Vector_22" d="M148.826 11.0162C147.798 11.4359 146.359 12.1703 145.434 11.0162C144.612 10.072 143.893 9.12776 143.07 8.07861C144.92 8.07861 146.154 8.18353 146.667 8.18353C147.181 8.18353 147.592 8.60318 147.901 9.12776C148.209 9.75724 148.517 10.3867 148.826 11.0162Z" fill="#D2AB67"/>
<path id="Vector_23" d="M152.63 9.9668C152.939 11.0159 153.144 12.0651 153.35 13.1142C153.555 14.3732 153.453 15.0027 152.528 15.6322C152.117 15.9469 151.705 16.1567 151.294 16.4715H151.192C150.986 15.842 150.678 15.3174 150.472 14.6879C150.164 13.9535 150.164 13.429 150.678 12.7995C151.294 11.9602 151.911 11.0159 152.63 9.9668Z" fill="#D2AB67"/>
<path id="Vector_24" d="M150.057 15.423C148.927 15.7377 147.488 16.3672 146.666 15.0033C146.049 13.9542 145.33 12.905 144.713 11.8559V11.751C145.843 11.9608 146.974 12.0657 148.207 12.2755C148.721 12.3805 149.03 12.6952 149.338 13.2198C149.646 13.9542 149.852 14.5837 150.057 15.423C150.16 15.423 150.16 15.3181 150.057 15.423Z" fill="#D2AB67"/>
<path id="Vector_25" d="M152.216 17.3108C152.935 16.5764 153.757 15.7371 154.477 15.0027C154.58 14.8978 154.58 15.0027 154.58 15.0027C154.58 16.2617 154.58 17.5206 154.58 18.7796C154.58 20.2484 153.038 20.773 152.01 21.1926H151.907C151.805 20.5631 151.599 19.8287 151.496 19.0943C151.393 18.255 151.702 17.8354 152.216 17.3108Z" fill="#D2AB67"/>
<path id="Vector_26" d="M151.087 20.2486C149.957 20.3535 148.415 20.6683 147.798 19.3044C147.284 18.1503 146.873 16.9963 146.359 15.8422V15.7373C147.49 16.157 148.62 16.4717 149.648 16.8914C150.265 17.1012 150.573 17.6258 150.676 18.3602C150.984 18.9896 151.087 19.6191 151.087 20.2486C151.19 20.2486 151.19 20.2486 151.087 20.2486Z" fill="#D2AB67"/>
<path id="Vector_27" d="M151.705 24.9693C150.677 24.8644 149.033 25.0742 148.622 23.7103C148.21 22.4514 147.902 21.2973 147.594 20.0383C148.622 20.458 149.649 20.9826 150.574 21.5071C151.191 21.8219 151.499 22.1366 151.602 22.871C151.602 23.3956 151.705 24.13 151.705 24.9693Z" fill="#D2AB67"/>
<path id="Vector_28" d="M152.32 23.9203C152.217 23.1859 152.32 22.6614 152.937 22.2417C153.862 21.5073 154.787 20.668 155.712 19.9336H155.814C155.712 21.0877 155.609 22.2417 155.506 23.3958C155.3 25.2842 154.067 25.3891 152.628 25.9137C152.628 25.9137 152.525 25.9137 152.525 25.8088C152.423 25.1793 152.32 24.5498 152.32 23.9203Z" fill="#D2AB67"/>
<path id="Vector_29" d="M151.703 29.691C150.572 29.4811 149.03 29.4811 148.722 28.0123C148.517 26.7534 148.311 25.5993 148.105 24.3403C148.105 24.3403 148.105 24.3403 148.208 24.3403C149.03 24.8649 149.955 25.3895 150.88 26.019C151.703 26.5435 151.908 26.8583 151.908 27.8025C151.908 28.432 151.908 29.0615 151.908 29.691C151.805 29.586 151.805 29.691 151.703 29.691Z" fill="#D2AB67"/>
<path id="Vector_30" d="M152.424 28.9565C152.424 28.3271 152.527 27.4877 153.041 27.173C154.069 26.4386 155.199 25.8091 156.227 25.0747C156.021 26.1239 155.816 27.173 155.508 28.3271C155.405 28.8516 155.199 29.2713 155.097 29.4811C154.583 30.3204 153.247 30.3204 152.322 30.5303C152.219 30.5303 152.219 30.5303 152.219 30.4253C152.424 30.1106 152.424 29.4811 152.424 28.9565Z" fill="#D2AB67"/>
<path id="Vector_31" d="M151.086 34.307C150.058 33.9922 148.414 33.7824 148.311 32.3136C148.208 31.0546 148.105 29.7957 148.105 28.5367C148.105 28.4318 148.105 28.4318 148.208 28.5367C149.03 29.1662 149.955 29.9006 150.778 30.635C151.394 31.1596 151.497 31.6841 151.394 32.5234C151.292 33.048 151.292 33.6775 151.086 34.307C151.189 34.307 151.189 34.307 151.086 34.307Z" fill="#D2AB67"/>
<path id="Vector_32" d="M151.703 35.3561C151.703 34.5168 151.806 33.7824 151.909 33.048C152.011 32.4185 152.525 31.9989 153.142 31.6841C154.17 31.1596 155.095 30.7399 156.123 30.2153C155.711 31.4743 155.3 32.6284 154.889 33.8873C154.478 35.3561 152.834 35.2512 151.703 35.3561Z" fill="#D2AB67"/>
<path id="Vector_33" d="M147.695 37.5596C147.489 37.2449 147.387 36.8252 147.387 36.3006C147.387 35.1466 147.489 33.9925 147.489 32.8385C147.489 32.7335 147.489 32.7335 147.592 32.8385C148.312 33.5729 149.134 34.3073 149.853 35.0417C150.367 35.4613 150.573 35.9859 150.47 36.6154C150.367 36.9301 150.264 37.6645 149.956 38.8186C149.956 38.8186 149.956 38.8186 149.853 38.8186C149.237 38.5038 148.106 38.1891 147.695 37.5596Z" fill="#D2AB67"/>
<path id="Vector_34" d="M150.88 37.6645C151.085 36.6154 151.907 36.5104 152.73 36.1957C153.552 35.881 154.374 35.5662 155.196 35.2515C155.299 35.2515 155.299 35.2515 155.196 35.3564C154.682 36.5104 154.168 37.6645 153.655 38.8186C153.038 40.1824 151.496 39.9726 150.263 39.8677C150.263 39.8677 150.16 39.8677 150.16 39.7628C150.571 39.0284 150.674 38.3989 150.88 37.6645Z" fill="#D2AB67"/>
<path id="Vector_35" d="M147.488 38.1887C148.31 39.133 149.338 39.8674 148.927 41.1263C148.721 41.7558 148.516 42.4902 148.31 43.1197C148.31 43.1197 148.208 43.2246 148.208 43.1197C147.591 42.805 146.666 42.3853 146.255 41.9656C145.844 41.4411 145.844 40.9165 145.844 40.287C145.947 39.133 146.049 38.0838 146.255 36.9298C146.255 36.8248 146.255 36.8248 146.358 36.9298C146.769 37.2445 147.18 37.874 147.488 38.1887Z" fill="#D2AB67"/>
<path id="Vector_36" d="M148.823 44.1687C148.721 44.1687 148.721 44.1687 148.721 44.0638C148.926 43.4343 149.132 42.8049 149.337 42.1754C149.646 41.3361 150.16 41.1262 150.982 40.8115C152.01 40.4967 152.935 40.2869 153.962 39.9722C153.448 41.0213 152.832 42.0705 152.318 43.1196C151.393 44.5884 150.262 44.2737 148.823 44.1687Z" fill="#D2AB67"/>
<path id="Vector_37" d="M144.611 45.7428C143.994 45.1134 144.097 44.4839 144.405 43.6446C144.714 42.5954 145.022 41.5463 145.33 40.6021H145.433C146.05 41.5463 146.564 42.4905 147.18 43.4347C147.489 43.9593 147.694 44.4839 147.386 45.0085C147.283 45.3232 146.872 45.9527 146.358 47.0018C146.358 47.0018 146.358 47.0018 146.255 47.0018C145.433 46.4773 144.919 46.0576 144.611 45.7428Z" fill="#D2AB67"/>
<path id="Vector_38" d="M146.359 48.0507C146.668 47.4213 146.976 46.7918 147.284 46.1623C147.695 45.4279 148.209 45.2181 149.032 45.2181C150.059 45.1131 151.087 45.0082 152.218 44.9033C152.218 44.9033 152.218 44.9033 152.218 45.0082C151.498 45.9525 150.676 47.0016 149.957 47.9458C148.929 49.0999 147.593 48.3655 146.359 48.0507Z" fill="#D2AB67"/>
<path id="Vector_39" d="M142.146 49.2047C141.529 48.5752 141.632 47.8408 142.043 46.8966C142.454 45.8474 142.865 44.9032 143.379 43.959H143.482C143.893 44.9032 144.304 45.7425 144.715 46.6868C145.126 47.5261 145.229 48.0506 144.715 48.89C144.304 49.4145 143.996 49.9391 143.585 50.4637C143.585 50.4637 143.482 50.5686 143.482 50.4637C142.968 50.044 142.557 49.6244 142.146 49.2047Z" fill="#D2AB67"/>
<path id="Vector_40" d="M143.583 51.5125C143.48 51.5125 143.48 51.4076 143.583 51.4076C143.994 50.7781 144.405 50.2535 144.713 49.624C145.125 49.0995 145.638 48.8896 146.358 48.8896C147.488 48.8896 148.619 48.9946 149.647 48.9946C148.825 49.8339 148.002 50.6732 147.077 51.5125C145.947 52.8764 144.816 52.142 143.583 51.5125Z" fill="#D2AB67"/>
<path id="Vector_41" d="M139.471 52.7715C138.751 51.9322 138.854 51.1978 139.368 50.2536C139.882 49.3094 140.293 48.3651 140.807 47.4209H140.91C141.321 48.575 141.732 49.6241 142.246 50.7782C142.451 51.3027 142.246 51.8273 141.938 52.3519C141.526 52.8764 141.115 53.401 140.704 53.9256C140.704 53.9256 140.704 53.9256 140.601 53.9256C140.19 53.5059 139.882 53.0863 139.471 52.7715Z" fill="#D2AB67"/>
<path id="Vector_42" d="M146.976 52.8766C145.845 53.9258 144.715 54.87 144.098 55.3946C142.967 56.3388 141.734 55.3946 140.604 54.87V54.7651C141.015 54.2405 141.529 53.611 141.94 52.9815C142.351 52.457 142.967 52.3521 143.79 52.457C144.817 52.6668 145.845 52.7717 146.976 52.8766Z" fill="#D2AB67"/>
<path id="Vector_43" d="M137.623 59.1716C136.595 59.906 134.539 60.5355 134.745 58.3323C134.848 57.388 135.053 56.4438 135.361 55.6045H135.464C135.464 56.9684 136.081 58.647 137.623 59.1716C137.623 59.0667 137.623 59.0667 137.623 59.1716Z" fill="#D2AB67"/>
<path id="Vector_44" d="M137.109 56.7591C136.184 55.605 135.157 54.7657 136.082 53.192C136.698 52.2478 137.315 51.3035 137.829 50.2544H137.932C138.24 51.3035 138.548 52.4576 138.857 53.5067C139.062 54.1362 138.959 54.6608 138.548 55.0805C138.137 55.7099 137.623 56.2345 137.109 56.7591C137.109 56.864 137.109 56.864 137.109 56.7591Z" fill="#D2AB67"/>
<path id="Vector_45" d="M137.107 57.8079V57.703C137.519 57.1784 137.93 56.7587 138.444 56.2342C139.06 55.4998 139.574 55.4998 140.602 55.7096C141.63 55.9194 142.555 56.0243 143.582 56.2342C143.582 56.2342 143.582 56.2342 143.582 56.3391C142.657 57.0735 141.63 57.8079 140.705 58.5423C139.266 59.4865 138.238 58.4374 137.107 57.8079Z" fill="#D2AB67"/>
<path id="Vector_46" d="M85.9261 6.81925C86.8511 6.60942 87.365 5.87502 87.6733 4.93079C88.1872 3.35708 88.5983 1.67845 89.1122 0.104734C89.1122 0.104734 89.1122 -0.000180263 89.0094 0.104734C87.4678 0.839134 86.0289 1.57353 84.4872 2.41285C83.7678 2.83251 83.2539 3.35708 83.0484 4.09148C82.8428 5.03571 82.9456 6.50451 83.0484 7.55365C83.0484 7.55365 83.0484 7.65857 83.1511 7.65857C84.0761 7.34382 85.0011 7.02908 85.9261 6.81925Z" fill="#D2AB67"/>
<path id="Vector_47" d="M79.8635 5.45557C79.4524 6.60962 79.1441 7.65877 78.8358 8.70791C78.2191 10.5964 79.2469 11.1209 80.583 12.1701H80.6858C80.8913 11.8553 81.0969 11.4357 81.3024 11.1209C81.8163 10.1767 82.2274 9.54722 81.7135 8.603C81.0969 7.55385 80.4802 6.50471 79.8635 5.45557Z" fill="#D2AB67"/>
<path id="Vector_48" d="M81.5059 11.0162C82.5336 11.4359 83.9725 12.1703 84.8975 11.0162C85.7197 10.072 86.4391 9.12776 87.2614 8.07861C85.4114 8.07861 84.1781 8.18353 83.6642 8.18353C83.1503 8.18353 82.7392 8.60318 82.4308 9.12776C82.1225 9.75724 81.8142 10.3867 81.5059 11.0162Z" fill="#D2AB67"/>
<path id="Vector_49" d="M77.7029 9.9668C77.6001 9.9668 77.6001 9.9668 77.7029 9.9668C77.3946 11.0159 77.189 12.0651 76.9835 13.1142C76.7779 14.3732 76.8807 15.0027 77.8057 15.6322C78.2168 15.9469 78.6279 16.1567 79.039 16.4715H79.1418C79.3474 15.842 79.6557 15.3174 79.8612 14.6879C80.1696 13.9535 80.1696 13.429 79.6557 12.7995C79.039 11.9602 78.4224 11.0159 77.7029 9.9668Z" fill="#D2AB67"/>
<path id="Vector_50" d="M80.1719 15.4225C81.3024 15.7372 82.7413 16.3667 83.5635 15.0028C84.1802 13.9537 84.8996 12.9045 85.5163 11.8554V11.7505C84.3857 11.9603 83.2552 12.0652 82.0219 12.2751C81.508 12.38 81.1996 12.6947 80.8913 13.2193C80.6858 13.9537 80.4802 14.5832 80.1719 15.4225Z" fill="#D2AB67"/>
<path id="Vector_51" d="M78.1158 17.3108C77.3964 16.5764 76.5742 15.7371 75.8547 15.0027C75.752 14.8978 75.752 15.0027 75.752 15.0027C75.752 16.2617 75.752 17.5206 75.752 18.7796C75.752 20.2484 77.2936 20.773 78.3214 21.1926H78.4242C78.5269 20.5631 78.7325 19.8287 78.8353 19.0943C78.938 18.255 78.6297 17.8354 78.1158 17.3108Z" fill="#D2AB67"/>
<path id="Vector_52" d="M79.247 20.2486C80.3775 20.3535 81.9192 20.6683 82.5359 19.3044C83.0497 18.1503 83.4608 16.9963 83.9747 15.8422V15.7373C82.8442 16.157 81.7136 16.4717 80.6859 16.8914C80.0692 17.1012 79.7609 17.6258 79.6581 18.3602C79.3498 18.9896 79.247 19.6191 79.247 20.2486C79.1442 20.2486 79.1442 20.2486 79.247 20.2486Z" fill="#D2AB67"/>
<path id="Vector_53" d="M78.6297 24.9693C79.6574 24.8644 81.3019 25.0742 81.713 23.7103C82.1241 22.4514 82.4324 21.2973 82.7407 20.0383C81.713 20.458 80.6852 20.9826 79.7602 21.5071C79.1435 21.8219 78.8352 22.1366 78.7324 22.871C78.6297 23.3956 78.6297 24.13 78.6297 24.9693Z" fill="#D2AB67"/>
<path id="Vector_54" d="M78.01 23.9203C78.1128 23.1859 78.01 22.6614 77.3934 22.2417C76.4684 21.5073 75.5434 20.668 74.6184 19.9336H74.5156C74.6184 21.0877 74.7212 22.2417 74.824 23.3958C75.0295 25.2842 76.2628 25.3891 77.7017 25.9137C77.7017 25.9137 77.8045 25.9137 77.8045 25.8088C77.9073 25.1793 78.01 24.5498 78.01 23.9203Z" fill="#D2AB67"/>
<path id="Vector_55" d="M78.6274 29.691C79.758 29.4811 81.2996 29.4811 81.608 28.0123C81.8135 26.7534 82.0191 25.5993 82.2246 24.3403C82.2246 24.3403 82.2246 24.3403 82.1218 24.3403C81.2996 24.8649 80.3746 25.3895 79.4496 26.019C78.6274 26.5435 78.4219 26.8583 78.4219 27.8025C78.4219 28.432 78.4219 29.0615 78.4219 29.691C78.5247 29.586 78.5246 29.691 78.6274 29.691Z" fill="#D2AB67"/>
<path id="Vector_56" d="M77.909 28.9565C77.909 28.3271 77.8062 27.4877 77.2923 27.173C76.2645 26.4386 75.134 25.8091 74.1062 25.0747C74.3118 26.1239 74.5173 27.173 74.8257 28.3271C74.9284 28.8516 75.134 29.2713 75.2368 29.4811C75.7507 30.3204 77.0867 30.3204 78.0117 30.5303C78.1145 30.5303 78.1145 30.5303 78.1145 30.4253C77.909 30.1106 77.909 29.4811 77.909 28.9565Z" fill="#D2AB67"/>
<path id="Vector_57" d="M79.2454 34.307C80.2732 33.9922 81.9176 33.7824 82.0204 32.3136C82.1231 31.0546 82.2259 29.7957 82.2259 28.5367C82.2259 28.4318 82.2259 28.4318 82.1231 28.5367C81.3009 29.1662 80.3759 29.9006 79.5537 30.635C78.9371 31.1596 78.8343 31.6841 78.9371 32.5234C78.9371 33.048 79.0398 33.6775 79.2454 34.307C79.1426 34.307 79.1426 34.307 79.2454 34.307Z" fill="#D2AB67"/>
<path id="Vector_58" d="M78.6284 35.3561C78.6284 34.5168 78.5256 33.7824 78.4228 33.048C78.3201 32.4185 77.8062 31.9989 77.1895 31.6841C76.1617 31.1596 75.2368 30.7399 74.209 30.2153C74.6201 31.4743 75.0312 32.6284 75.4423 33.8873C75.8534 35.3561 77.4978 35.2512 78.6284 35.3561Z" fill="#D2AB67"/>
<path id="Vector_59" d="M82.6386 37.5596C82.8441 37.2449 82.9469 36.8252 82.9469 36.3006C82.9469 35.1466 82.8441 33.9925 82.8441 32.8385C82.8441 32.7335 82.8441 32.7335 82.7413 32.8385C82.0219 33.5729 81.1997 34.3073 80.4802 35.0417C79.9664 35.4613 79.7608 35.9859 79.8636 36.6154C79.9664 36.9301 80.0691 37.6645 80.3775 38.8186C80.3775 38.8186 80.3775 38.8186 80.4802 38.8186C81.0969 38.5038 82.2274 38.1891 82.6386 37.5596Z" fill="#D2AB67"/>
<path id="Vector_60" d="M79.4523 37.6645C79.2467 36.6154 78.4245 36.5104 77.6023 36.1957C76.7801 35.881 75.9579 35.5662 75.1357 35.2515C75.0329 35.2515 75.0329 35.2515 75.1357 35.3564C75.6496 36.5104 76.1634 37.6645 76.6773 38.8186C77.294 40.1824 78.8356 39.9726 80.069 39.8677C80.069 39.8677 80.1717 39.8677 80.1717 39.7628C79.7606 39.0284 79.6579 38.3989 79.4523 37.6645Z" fill="#D2AB67"/>
<path id="Vector_61" d="M82.8411 38.1887C82.0189 39.133 80.9911 39.8674 81.4022 41.1263C81.6077 41.7558 81.8133 42.4902 82.0189 43.1197C82.0189 43.1197 82.1216 43.2246 82.1216 43.1197C82.7383 42.805 83.6633 42.3853 84.0744 41.9656C84.4855 41.4411 84.4855 40.9165 84.4855 40.287C84.3827 39.133 84.2799 38.0838 84.0744 36.9298C84.0744 36.8248 84.0744 36.8248 83.9716 36.9298C83.5605 37.2445 83.1494 37.874 82.8411 38.1887Z" fill="#D2AB67"/>
<path id="Vector_62" d="M81.5068 44.1687C81.6096 44.1687 81.6096 44.1687 81.6096 44.0638C81.404 43.4343 81.1985 42.8049 80.9929 42.1754C80.6846 41.3361 80.1707 41.1262 79.3485 40.8115C78.3207 40.4967 77.3957 40.2869 76.3679 39.9722C76.8818 41.0213 77.4985 42.0705 78.0124 43.1196C78.8346 44.5884 80.0679 44.2737 81.5068 44.1687Z" fill="#D2AB67"/>
<path id="Vector_63" d="M85.7205 45.7428C86.3371 45.1134 86.2343 44.4839 85.926 43.6446C85.6177 42.5954 85.3094 41.5463 85.001 40.6021H84.8982C84.2816 41.5463 83.7677 42.4905 83.151 43.4347C82.8427 43.9593 82.6372 44.4839 82.9455 45.0085C83.0483 45.3232 83.4594 45.9527 83.9733 47.0018C83.9733 47.0018 83.9733 47.0018 84.076 47.0018C84.8983 46.4773 85.4121 46.0576 85.7205 45.7428Z" fill="#D2AB67"/>
<path id="Vector_64" d="M83.9735 48.0507C83.6652 47.4213 83.3569 46.7918 83.0485 46.1623C82.6374 45.4279 82.1235 45.2181 81.3013 45.2181C80.2735 45.1131 79.2458 45.0082 78.1152 44.9033C78.1152 44.9033 78.1152 44.9033 78.1152 45.0082C78.8347 45.9525 79.6569 47.0016 80.3763 47.9458C81.3013 49.0999 82.7402 48.3655 83.9735 48.0507Z" fill="#D2AB67"/>
<path id="Vector_65" d="M88.1849 49.2047C88.8016 48.5752 88.6988 47.8408 88.2877 46.8966C87.8766 45.8474 87.4655 44.9032 86.9516 43.959H86.8488C86.4377 44.9032 86.0266 45.7425 85.6155 46.6868C85.2044 47.5261 85.1016 48.0506 85.6155 48.89C86.0266 49.4145 86.3349 49.9391 86.7461 50.4637C86.7461 50.4637 86.8488 50.5686 86.8488 50.4637C87.3627 50.044 87.7738 49.6244 88.1849 49.2047Z" fill="#D2AB67"/>
<path id="Vector_66" d="M86.7474 51.5125C86.8502 51.5125 86.8502 51.4076 86.7474 51.4076C86.3363 50.7781 85.9252 50.2535 85.6169 49.624C85.2058 49.0995 84.6919 48.8896 83.9724 48.8896C82.8419 48.8896 81.7114 48.9946 80.6836 48.9946C81.5058 49.8339 82.328 50.6732 83.253 51.5125C84.3836 52.8764 85.4113 52.142 86.7474 51.5125Z" fill="#D2AB67"/>
<path id="Vector_67" d="M90.8597 52.7715C91.5791 51.9322 91.4763 51.1978 90.9624 50.2536C90.4486 49.3094 90.0374 48.3651 89.5236 47.4209H89.4208C89.0097 48.575 88.5986 49.6241 88.0847 50.7782C87.8791 51.3027 88.0847 51.8273 88.393 52.3519C88.8041 52.8764 89.2152 53.401 89.6263 53.9256C89.6263 53.9256 89.6263 53.9256 89.7291 53.9256C90.1402 53.5059 90.4486 53.0863 90.8597 52.7715Z" fill="#D2AB67"/>
<path id="Vector_68" d="M83.3574 52.8766C84.488 53.9258 85.6185 54.87 86.2352 55.3946C87.3657 56.3388 88.599 55.3946 89.7296 54.87V54.7651C89.3185 54.2405 88.8046 53.611 88.3935 52.9815C87.9824 52.457 87.3657 52.3521 86.5435 52.457C85.5157 52.6668 84.488 52.7717 83.3574 52.8766Z" fill="#D2AB67"/>
<path id="Vector_69" d="M92.709 59.1716C93.7368 59.906 95.7923 60.5355 95.5867 58.3323C95.484 57.388 95.2784 56.4438 94.9701 55.6045H94.8673C94.8673 56.9684 94.2506 58.647 92.709 59.1716C92.709 59.0667 92.709 59.0667 92.709 59.1716Z" fill="#D2AB67"/>
<path id="Vector_70" d="M93.225 56.7591C94.15 55.605 95.1777 54.7657 94.2528 53.192C93.6361 52.2478 93.0194 51.3035 92.5055 50.2544H92.4028C92.0944 51.3035 91.7861 52.4576 91.4778 53.5067C91.2722 54.1362 91.375 54.6608 91.7861 55.0805C92.1972 55.7099 92.7111 56.2345 93.225 56.7591C93.225 56.864 93.225 56.864 93.225 56.7591Z" fill="#D2AB67"/>
<path id="Vector_71" d="M93.221 57.8079V57.703C92.8099 57.1784 92.3988 56.7587 91.8849 56.2342C91.2683 55.4998 90.7544 55.4998 89.7266 55.7096C88.6989 55.9194 87.7739 56.0243 86.7461 56.2342C86.7461 56.2342 86.7461 56.2342 86.7461 56.3391C87.6711 57.0735 88.6989 57.8079 89.6238 58.5423C91.0627 59.4865 92.0905 58.4374 93.221 57.8079Z" fill="#D2AB67"/>
<path id="Vector_72" d="M107.2 26.0182C108.845 26.3329 109.873 26.3329 111.517 26.3329C122 26.0182 122.411 6.29431 110.798 6.1894C109.359 6.1894 108.742 6.1894 107.2 6.1894V26.0182ZM107.2 28.9558C107.2 34.4113 107.2 39.1325 107.2 44.588C107.2 45.9519 107.509 46.6863 108.845 47.0011L112.134 47.8404V49.3092H95.6895V47.8404C95.6895 47.8404 95.6895 47.7355 95.7922 47.7355L98.1561 47.0011C99.595 46.6863 100.212 46.1618 100.212 44.693C100.212 32.6278 100.212 20.5627 100.212 8.60243C100.212 7.13363 99.8005 6.39923 98.3617 6.08448L95.7922 5.35008V5.24517V3.88128C95.7922 3.88128 95.7922 3.77637 95.895 3.77637C103.603 3.77637 108.845 3.77637 111.517 3.77637C131.867 3.77637 129.606 23.815 117.067 27.6968C117.067 27.6968 116.964 27.8017 117.067 27.8017C120.664 32.9425 124.159 38.0834 127.756 43.1192C128.784 44.588 130.12 46.5814 131.867 47.0011C132.895 47.2109 134.025 47.5256 135.053 47.7355C135.053 47.7355 135.156 47.7355 135.156 47.8404V49.3092V49.4141C132.895 49.4141 129.4 49.4141 127.242 49.4141C125.495 49.4141 124.056 48.9944 122.925 47.7355C122.411 47.106 121.692 46.0568 121.075 45.1126C117.581 39.762 114.395 34.9359 110.9 29.5853C110.9 29.5853 110.9 29.5853 110.798 29.4804L107.2 28.9558Z" fill="#D2AB67"/>
<path id="Vector_73" d="M97.7461 60.4305L100.11 60.1158L101.138 57.9126H101.241L102.268 60.1158L104.632 60.4305C104.632 60.4305 104.632 60.4305 104.632 60.5355L102.885 62.2141L103.296 64.6271C103.296 64.6271 103.296 64.6271 103.193 64.6271L101.035 63.4731L98.8766 64.6271H98.7739L99.185 62.2141L97.7461 60.4305Z" fill="#D2AB67"/>
<path id="Vector_74" d="M106.586 62.9486L108.95 62.6339L109.978 60.4307H110.08L111.108 62.6339L113.472 62.9486C113.472 62.9486 113.472 62.9486 113.472 63.0535L111.93 64.7322L112.341 67.1452C112.341 67.1452 112.341 67.2501 112.239 67.1452L110.183 66.096L108.025 67.2501H107.922L108.333 64.8371L106.586 62.9486Z" fill="#D2AB67"/>
<path id="Vector_75" d="M119.125 62.6339L120.153 60.4307H120.255L121.283 62.6339L123.647 62.9486C123.647 62.9486 123.647 62.9486 123.647 63.0535L121.9 64.8371L122.311 67.2501C122.311 67.2501 122.311 67.355 122.208 67.2501L120.255 66.096L118.097 67.2501H117.994L118.405 64.8371L116.658 63.1584V63.0535L119.125 62.6339Z" fill="#D2AB67"/>
<path id="Vector_76" d="M130.84 62.2141L131.251 64.6271C131.251 64.6271 131.251 64.732 131.148 64.6271L128.99 63.4731L126.831 64.6271H126.729L127.14 62.2141L125.393 60.5355V60.4305L127.756 60.1158L128.784 57.9126H128.887L129.915 60.1158L132.279 60.4305C132.279 60.4305 132.279 60.4305 132.279 60.5355L130.84 62.2141Z" fill="#D2AB67"/>
</g>
</svg>
