<svg width="175" height="86" viewBox="0 0 175 86" fill="none" xmlns="http://www.w3.org/2000/svg">
<g id="klogo BHT 1" clip-path="url(#clip0_234_538)">
<rect width="175" height="85" transform="translate(0 0.5)" fill="#FDFBF7"/>
<g id="Clip path group" opacity="0.5">
<mask id="mask0_234_538" style="mask-type:luminance" maskUnits="userSpaceOnUse" x="0" y="0" width="68" height="86">
<g id="clip0_847_635">
<path id="Vector" d="M67.3382 0.570801H0.439453V85.2985H67.3382V0.570801Z" fill="white"/>
</g>
</mask>
<g mask="url(#mask0_234_538)">
<g id="Group">
<path id="Vector_2" d="M67.315 43.4317V48.6879L67.3028 59.6325V64.8888L67.2907 75.8324L59.7875 83.5649L58.1267 85.2756L47.528 85.2644L59.7996 72.6197V67.364L42.4323 85.2578L31.8339 85.245L59.8123 56.4173V54.1157V51.1626L51.1877 60.0484L26.7367 85.2404L16.1383 85.2277L17.4477 83.8789L28.336 72.661L43.3931 57.1452L59.8229 40.2225V34.9663L59.6056 35.1912L44.738 50.5096L34.5359 61.0216L14.8073 81.3493L11.0426 85.2277H0.476562L7.47073 78.0048L20.1651 64.9097L22.6327 62.3612L27.2688 57.5829L35.8206 48.7704L57.9504 25.9629C57.4003 24.8268 56.7277 23.758 55.9457 22.7772L55.8748 22.6911C55.8236 22.629 55.7745 22.567 55.7203 22.5064L55.6448 22.4143L55.5678 22.3237C55.465 22.2025 55.3622 22.0829 55.2594 21.9653C55.1545 21.8472 55.0467 21.7292 54.9352 21.6162L54.7473 21.4217L54.6101 21.2848L54.5685 21.2451C54.4683 21.1449 54.368 21.0476 54.2601 20.9535L54.2216 20.9168C54.1552 20.8568 54.0889 20.7947 54.021 20.7356C53.9825 20.699 53.942 20.6623 53.9005 20.6287L53.5844 20.3549C53.5059 20.2898 53.4304 20.2241 53.3469 20.162L53.1787 20.0266L52.8394 19.767C52.7102 19.6714 52.5805 19.5777 52.4478 19.4851L52.3567 19.4214L52.19 19.3085L52.0204 19.197C51.8958 19.114 51.7707 19.0377 51.6425 18.9562C51.5149 18.8753 51.3959 18.8066 51.2713 18.7348L51.2079 18.6987C51.0889 18.63 50.9704 18.5648 50.8514 18.5007L50.7577 18.4498L50.7035 18.4228C50.6161 18.375 50.5267 18.3292 50.4351 18.2844L50.3827 18.2574L50.358 18.2462C50.2208 18.1775 50.0835 18.1108 49.9447 18.0472C46.3975 16.4098 42.3984 16.5549 38.5767 16.5752C32.3665 16.6103 26.1573 16.6246 19.9492 16.6185C19.8152 16.6302 19.6823 16.6521 19.5513 16.6836C18.3125 16.9335 17.1868 17.5952 16.3459 18.5674C15.5051 19.5395 14.995 20.7692 14.8937 22.0687C14.8813 22.2249 14.8751 22.3842 14.8751 22.5466C14.8751 22.7059 14.8752 22.854 14.8921 23.0067C14.8921 27.5982 14.887 32.1898 14.8767 36.7823C14.8767 38.2029 14.8767 39.6204 14.9152 41.041C15.0525 44.2537 14.9477 47.4913 14.9477 50.707C14.9477 50.7218 14.9477 50.959 14.9477 50.9605C15.7689 51.1427 16.6208 51.1147 17.4291 50.8791C18.5787 50.5269 19.5782 49.7817 20.2638 48.7658L35.9749 32.5389C36.8884 30.9479 37.2628 29.088 37.039 27.2531C36.8133 25.5292 36.0694 23.9219 34.9122 22.6581L39.9909 17.413C40.796 18.2096 43.9622 21.5032 44.4018 26.8867C44.8768 32.7125 41.8154 36.7345 41.1723 37.5417L23.4393 55.831C22.2367 56.8067 20.8802 57.561 19.4295 58.0608C17.87 58.5983 16.2275 58.8329 14.5852 58.752L7.47534 51.4094V48.2354C7.48922 48.2354 7.54321 23.5976 7.54321 23.5976V20.39C7.74419 19.0458 8.19624 17.7555 8.87418 16.5895C9.64988 15.2498 10.7033 14.1046 11.9587 13.2354L7.7252 8.84592H14.8937L29.1396 8.86343L37.1516 0.608398L37.1424 8.873C37.5743 8.90135 38.0075 8.90135 38.4394 8.873H44.5961H44.61C45.6367 9.00172 46.6549 9.19426 47.6591 9.44952C52.2832 10.6263 56.5003 13.104 59.8432 16.6073V16.65H59.866C62.9495 19.8755 65.1831 23.8613 66.3541 28.2294C66.7426 29.6779 67.0111 31.1581 67.1564 32.654C67.2132 36.2469 67.2658 39.8398 67.315 43.4317Z" fill="#D2AB67"/>
<path id="Vector_3" d="M20.1601 64.9019L7.47656 78.0005V77.97L14.8255 70.3984L20.1601 64.9019Z" fill="#D2AB67" stroke="white" stroke-width="0.647833" stroke-miterlimit="10"/>
<path id="Vector_4" d="M29.4777 20.647V27.7233H22.627L26.2636 23.9676V23.966L27.8552 22.3225L29.4777 20.647Z" fill="#D2AB67"/>
</g>
</g>
</g>
<path id="Vector_5" opacity="0.5" d="M85.0028 31.3462C84.8027 31.3462 84.6391 31.282 84.512 31.1543C84.3843 31.026 84.321 30.8616 84.321 30.6606V12.8437C84.321 12.6426 84.3843 12.4782 84.512 12.3502C84.6391 12.2223 84.8027 12.1584 85.0028 12.1584H93.3224C94.886 12.1584 96.1679 12.3777 97.1682 12.8162C98.1686 13.2548 98.905 13.8852 99.3776 14.7076C99.8689 15.5117 100.114 16.4712 100.114 17.5858C100.114 18.2434 99.9869 18.8283 99.7321 19.3398C99.4961 19.8335 99.1957 20.2448 98.8321 20.5736C98.4866 20.9024 98.1595 21.1401 97.85 21.2861C98.5414 21.6149 99.1507 22.154 99.6779 22.9032C100.223 23.6524 100.496 24.5299 100.496 25.5346C100.496 26.7409 100.223 27.7823 99.6779 28.6598C99.1507 29.5184 98.3686 30.1857 97.3318 30.6606C96.3138 31.1176 95.0587 31.3462 93.5676 31.3462H85.0028ZM89.2036 27.7823H93.0221C93.8041 27.7823 94.3952 27.5543 94.7953 27.0972C95.1954 26.6406 95.3955 26.1194 95.3955 25.5346C95.3955 24.8953 95.1863 24.3563 94.768 23.9176C94.3678 23.4788 93.7859 23.26 93.0221 23.26H89.2036V27.7823ZM89.2036 19.7785H92.7769C93.5225 19.7785 94.0771 19.5867 94.4408 19.2029C94.8227 18.8191 95.0136 18.3259 95.0136 17.7228C95.0136 17.1379 94.8227 16.6631 94.4408 16.2976C94.0771 15.9138 93.5225 15.7219 92.7769 15.7219H89.2036V19.7785ZM104.209 31.3462C104.008 31.3462 103.845 31.282 103.718 31.1543C103.59 31.026 103.527 30.8616 103.527 30.6606V12.8437C103.527 12.6426 103.59 12.4782 103.718 12.3502C103.845 12.2223 104.008 12.1584 104.209 12.1584H107.809C107.991 12.1584 108.146 12.2223 108.273 12.3502C108.418 12.4782 108.491 12.6426 108.491 12.8437V27.2071H116.729C116.929 27.2071 117.092 27.2799 117.219 27.426C117.365 27.5543 117.438 27.7187 117.438 27.9197V30.6606C117.438 30.8616 117.365 31.026 117.219 31.1543C117.092 31.282 116.929 31.3462 116.729 31.3462H104.209ZM118.711 31.3462C118.566 31.3462 118.429 31.2912 118.302 31.1813C118.193 31.0535 118.138 30.9166 118.138 30.7705C118.138 30.6789 118.147 30.597 118.165 30.5237L124.576 12.9259C124.63 12.7249 124.739 12.5512 124.903 12.4051C125.085 12.2406 125.33 12.1584 125.639 12.1584H129.676C129.986 12.1584 130.222 12.2406 130.386 12.4051C130.567 12.5512 130.686 12.7249 130.74 12.9259L137.123 30.5237C137.159 30.597 137.177 30.6789 137.177 30.7705C137.177 30.9166 137.114 31.0535 136.986 31.1813C136.877 31.2912 136.741 31.3462 136.578 31.3462H133.223C132.95 31.3462 132.74 31.282 132.595 31.1543C132.468 31.0077 132.386 30.8799 132.349 30.7705L131.286 27.9742H124.003L122.966 30.7705C122.93 30.8799 122.848 31.0077 122.721 31.1543C122.593 31.282 122.375 31.3462 122.066 31.3462H118.711ZM125.121 24.027H130.195L127.63 16.7908L125.121 24.027ZM146.756 31.62C145.029 31.62 143.547 31.337 142.31 30.7705C141.092 30.204 140.137 29.3723 139.446 28.276C138.773 27.1796 138.4 25.8181 138.328 24.1919C138.31 23.4427 138.301 22.6385 138.301 21.7793C138.301 20.9207 138.31 20.0982 138.328 19.3128C138.4 17.7228 138.782 16.3796 139.473 15.2832C140.165 14.1685 141.128 13.3279 142.365 12.7614C143.601 12.1766 145.065 11.8843 146.756 11.8843C147.956 11.8843 149.066 12.0396 150.084 12.3502C151.102 12.6426 151.993 13.0812 152.757 13.666C153.521 14.2325 154.112 14.9269 154.53 15.7494C154.967 16.5531 155.194 17.4667 155.212 18.4903C155.23 18.6547 155.176 18.7916 155.048 18.9016C154.94 19.011 154.803 19.066 154.639 19.066H150.957C150.72 19.066 150.539 19.0202 150.411 18.929C150.284 18.8191 150.175 18.6272 150.084 18.3534C149.829 17.3848 149.411 16.7267 148.829 16.3796C148.265 16.0141 147.565 15.8314 146.729 15.8314C145.729 15.8314 144.938 16.1149 144.356 16.6814C143.774 17.2296 143.456 18.1523 143.401 19.4497C143.347 20.9482 143.347 22.4833 143.401 24.0545C143.456 25.3519 143.774 26.2838 144.356 26.8503C144.938 27.399 145.729 27.6728 146.729 27.6728C147.565 27.6728 148.275 27.4901 148.857 27.1247C149.438 26.7592 149.848 26.1011 150.084 25.1508C150.157 24.877 150.257 24.6943 150.384 24.6027C150.529 24.4932 150.72 24.4383 150.957 24.4383H154.639C154.803 24.4383 154.94 24.4932 155.048 24.6027C155.176 24.7126 155.23 24.8495 155.212 25.0139C155.194 26.0375 154.967 26.9603 154.53 27.7823C154.112 28.5865 153.521 29.2812 152.757 29.8655C151.993 30.432 151.102 30.8708 150.084 31.1813C149.066 31.4739 147.956 31.62 146.756 31.62ZM158.762 31.3462C158.562 31.3462 158.398 31.282 158.271 31.1543C158.144 31.026 158.08 30.8616 158.08 30.6606V12.8437C158.08 12.6426 158.144 12.4782 158.271 12.3502C158.398 12.2223 158.562 12.1584 158.762 12.1584H162.199C162.399 12.1584 162.563 12.2223 162.69 12.3502C162.818 12.4782 162.881 12.6426 162.881 12.8437V18.929L167.927 12.6792C168 12.5695 168.118 12.4599 168.282 12.3502C168.463 12.2223 168.7 12.1584 168.991 12.1584H172.919C173.083 12.1584 173.219 12.2223 173.328 12.3502C173.437 12.4599 173.491 12.5878 173.491 12.734C173.491 12.8619 173.455 12.9716 173.382 13.0629L166.863 21.3411L173.901 30.4412C173.974 30.5145 174.01 30.6239 174.01 30.7705C174.01 30.9166 173.946 31.0535 173.819 31.1813C173.71 31.2912 173.583 31.3462 173.437 31.3462H169.373C169.045 31.3462 168.791 31.2729 168.609 31.1268C168.445 30.9802 168.336 30.8708 168.282 30.7975L162.881 24.027V30.6606C162.881 30.8616 162.818 31.026 162.69 31.1543C162.563 31.282 162.399 31.3462 162.199 31.3462H158.762ZM85.0028 58.3222C84.8027 58.3222 84.6391 58.2581 84.512 58.1303C84.3843 58.0021 84.321 57.8377 84.321 57.6366V39.8197C84.321 39.6187 84.3843 39.4543 84.512 39.3265C84.6391 39.1982 84.8027 39.1346 85.0028 39.1346H88.5214C88.7214 39.1346 88.885 39.1982 89.0127 39.3265C89.1398 39.4543 89.2036 39.6187 89.2036 39.8197V46.4258H95.941V39.8197C95.941 39.6187 96.0043 39.4543 96.132 39.3265C96.2591 39.1982 96.4227 39.1346 96.6228 39.1346H100.141C100.341 39.1346 100.505 39.1982 100.633 39.3265C100.76 39.4543 100.824 39.6187 100.824 39.8197V57.6366C100.824 57.8377 100.76 58.0021 100.633 58.1303C100.505 58.2581 100.341 58.3222 100.141 58.3222H96.6228C96.4227 58.3222 96.2591 58.2581 96.132 58.1303C96.0043 58.0021 95.941 57.8377 95.941 57.6366V50.8112H89.2036V57.6366C89.2036 57.8377 89.1398 58.0021 89.0127 58.1303C88.885 58.2581 88.7214 58.3222 88.5214 58.3222H85.0028ZM112.447 58.596C110.774 58.596 109.319 58.3222 108.082 57.7735C106.846 57.2254 105.882 56.4034 105.191 55.307C104.5 54.1918 104.118 52.8033 104.045 51.1405C104.027 50.3546 104.018 49.5687 104.018 48.7829C104.018 47.997 104.027 47.2025 104.045 46.3983C104.118 44.7538 104.5 43.3739 105.191 42.2593C105.9 41.1263 106.873 40.2768 108.11 39.7103C109.346 39.1438 110.792 38.8603 112.447 38.8603C114.083 38.8603 115.52 39.1438 116.756 39.7103C118.011 40.2768 118.993 41.1263 119.702 42.2593C120.411 43.3739 120.793 44.7538 120.848 46.3983C120.884 47.2025 120.903 47.997 120.903 48.7829C120.903 49.5687 120.884 50.3546 120.848 51.1405C120.775 52.8033 120.393 54.1918 119.702 55.307C119.011 56.4034 118.047 57.2254 116.811 57.7735C115.574 58.3222 114.12 58.596 112.447 58.596ZM112.447 54.6489C113.411 54.6489 114.192 54.3567 114.792 53.7719C115.411 53.1871 115.738 52.2552 115.774 50.9761C115.811 50.1719 115.829 49.4135 115.829 48.7009C115.829 47.9884 115.811 47.2478 115.774 46.4808C115.738 45.6216 115.574 44.9273 115.284 44.3975C115.011 43.8493 114.629 43.4472 114.138 43.1912C113.647 42.9352 113.083 42.8074 112.447 42.8074C111.828 42.8074 111.274 42.9352 110.783 43.1912C110.292 43.4472 109.901 43.8493 109.61 44.3975C109.319 44.9273 109.155 45.6216 109.119 46.4808C109.101 47.2478 109.092 47.9884 109.092 48.7009C109.092 49.4135 109.101 50.1719 109.119 50.9761C109.173 52.2552 109.5 53.1871 110.101 53.7719C110.701 54.3567 111.483 54.6489 112.447 54.6489ZM124.746 58.3222C124.546 58.3222 124.382 58.2581 124.255 58.1303C124.128 58.0021 124.064 57.8377 124.064 57.6366V39.8197C124.064 39.6187 124.128 39.4543 124.255 39.3265C124.382 39.1982 124.546 39.1346 124.746 39.1346H132.165C134.511 39.1346 136.357 39.6828 137.702 40.7791C139.066 41.8572 139.748 43.3923 139.748 45.3839C139.748 46.6813 139.43 47.7781 138.793 48.6734C138.176 49.5687 137.357 50.2447 136.339 50.7017L140.103 57.4447C140.157 57.5547 140.185 57.6549 140.185 57.7466C140.185 57.8926 140.121 58.0295 139.994 58.1573C139.884 58.2672 139.748 58.3222 139.585 58.3222H135.984C135.639 58.3222 135.384 58.2398 135.22 58.0754C135.057 57.8926 134.939 57.7282 134.866 57.5816L131.756 51.5517H128.947V57.6366C128.947 57.8377 128.883 58.0021 128.756 58.1303C128.629 58.2581 128.465 58.3222 128.265 58.3222H124.746ZM128.947 47.6865H132.111C132.965 47.6865 133.602 47.4763 134.02 47.0559C134.456 46.636 134.675 46.0603 134.675 45.3294C134.675 44.6163 134.465 44.0412 134.048 43.6025C133.647 43.1637 133.002 42.9443 132.111 42.9443H128.947V47.6865ZM150.043 58.596C148.224 58.596 146.715 58.34 145.515 57.8285C144.315 57.2987 143.405 56.6136 142.787 55.7727C142.169 54.9324 141.842 54.0366 141.805 53.0863C141.805 52.9402 141.86 52.8125 141.969 52.7025C142.096 52.5748 142.242 52.5107 142.405 52.5107H145.842C146.097 52.5107 146.288 52.5565 146.415 52.6481C146.561 52.7392 146.688 52.8583 146.797 53.0044C146.942 53.2782 147.143 53.5434 147.397 53.7994C147.67 54.0549 148.015 54.2651 148.434 54.4295C148.87 54.5756 149.406 54.6489 150.043 54.6489C151.097 54.6489 151.888 54.4845 152.416 54.1557C152.961 53.8264 153.234 53.379 153.234 52.8125C153.234 52.4104 153.089 52.0816 152.798 51.8256C152.507 51.5517 152.034 51.314 151.379 51.113C150.743 50.8936 149.888 50.6743 148.815 50.4549C147.433 50.1627 146.251 49.7881 145.27 49.331C144.306 48.8562 143.569 48.2439 143.06 47.4946C142.551 46.7271 142.296 45.7768 142.296 44.6438C142.296 43.5292 142.605 42.5336 143.223 41.6561C143.86 40.7791 144.742 40.094 145.869 39.6003C146.997 39.1071 148.333 38.8603 149.879 38.8603C151.134 38.8603 152.234 39.0247 153.179 39.3535C154.143 39.6828 154.953 40.121 155.607 40.6692C156.262 41.2179 156.753 41.8022 157.08 42.4237C157.426 43.0268 157.608 43.6208 157.625 44.2056C157.625 44.3517 157.571 44.4886 157.462 44.6163C157.353 44.7263 157.217 44.7813 157.053 44.7813H153.452C153.252 44.7813 153.08 44.7446 152.934 44.6713C152.788 44.5985 152.661 44.4794 152.552 44.315C152.443 43.9129 152.152 43.5658 151.679 43.2737C151.225 42.9627 150.625 42.8074 149.879 42.8074C149.079 42.8074 148.451 42.9535 147.997 43.2462C147.56 43.52 147.342 43.9496 147.342 44.5344C147.342 44.8999 147.461 45.2195 147.697 45.4938C147.951 45.7677 148.361 46.0054 148.924 46.2064C149.506 46.4075 150.297 46.6177 151.297 46.837C152.952 47.1475 154.289 47.5405 155.307 48.0153C156.325 48.4724 157.071 49.0755 157.544 49.8248C158.016 50.5557 158.253 51.4784 158.253 52.5931C158.253 53.8355 157.898 54.9141 157.189 55.8277C156.498 56.723 155.535 57.4081 154.298 57.8835C153.061 58.3584 151.643 58.596 150.043 58.596ZM161.666 58.3222C161.466 58.3222 161.302 58.2581 161.174 58.1303C161.047 58.0021 160.983 57.8377 160.983 57.6366V39.8197C160.983 39.6187 161.047 39.4543 161.174 39.3265C161.302 39.1982 161.466 39.1346 161.666 39.1346H174.404C174.604 39.1346 174.768 39.1982 174.895 39.3265C175.022 39.4543 175.086 39.6187 175.086 39.8197V42.3962C175.086 42.5972 175.022 42.7616 174.895 42.8899C174.768 43.0176 174.604 43.0818 174.404 43.0818H165.703V46.7821H173.804C174.004 46.7821 174.168 46.8554 174.295 47.0014C174.422 47.1292 174.486 47.2936 174.486 47.4946V49.8792C174.486 50.062 174.422 50.2269 174.295 50.3729C174.168 50.5007 174.004 50.5648 173.804 50.5648H165.703V54.3751H174.622C174.822 54.3751 174.986 54.4387 175.113 54.5664C175.24 54.6947 175.304 54.8591 175.304 55.0602V57.6366C175.304 57.8377 175.24 58.0021 175.113 58.1303C174.986 58.2581 174.822 58.3222 174.622 58.3222H161.666ZM89.2036 85.2983C89.0036 85.2983 88.84 85.2341 88.7123 85.1064C88.5852 84.9781 88.5214 84.8137 88.5214 84.6127V70.4141H83.6661C83.4661 70.4141 83.3025 70.35 83.1753 70.2222C83.0482 70.0761 82.9844 69.9112 82.9844 69.7285V66.7957C82.9844 66.5947 83.0482 66.4303 83.1753 66.3025C83.3025 66.1743 83.4661 66.1107 83.6661 66.1107H98.3413C98.5414 66.1107 98.7049 66.1743 98.8321 66.3025C98.9597 66.4303 99.023 66.5947 99.023 66.7957V69.7285C99.023 69.9112 98.9597 70.0761 98.8321 70.2222C98.7049 70.35 98.5414 70.4141 98.3413 70.4141H93.486V84.6127C93.486 84.8137 93.4222 84.9781 93.2951 85.1064C93.168 85.2341 93.0039 85.2983 92.8038 85.2983H89.2036ZM102.184 85.2983C101.984 85.2983 101.82 85.2341 101.693 85.1064C101.566 84.9781 101.502 84.8137 101.502 84.6127V66.7957C101.502 66.5947 101.566 66.4303 101.693 66.3025C101.82 66.1743 101.984 66.1107 102.184 66.1107H114.922C115.122 66.1107 115.286 66.1743 115.413 66.3025C115.541 66.4303 115.604 66.5947 115.604 66.7957V69.3722C115.604 69.5733 115.541 69.7377 115.413 69.8659C115.286 69.9937 115.122 70.0578 114.922 70.0578H106.221V73.7581H114.322C114.522 73.7581 114.686 73.8314 114.813 73.9775C114.941 74.1052 115.004 74.2696 115.004 74.4707V76.8553C115.004 77.038 114.941 77.2029 114.813 77.349C114.686 77.4767 114.522 77.5409 114.322 77.5409H106.221V81.3511H115.141C115.341 81.3511 115.504 81.4147 115.631 81.5425C115.759 81.6708 115.822 81.8352 115.822 82.0362V84.6127C115.822 84.8137 115.759 84.9781 115.631 85.1064C115.504 85.2341 115.341 85.2983 115.141 85.2983H102.184ZM117.832 85.2983C117.686 85.2983 117.55 85.2433 117.423 85.1334C117.314 85.0056 117.259 84.8687 117.259 84.7226C117.259 84.631 117.268 84.549 117.286 84.4758L123.696 66.8782C123.751 66.6772 123.86 66.5036 124.024 66.357C124.205 66.1926 124.451 66.1107 124.761 66.1107H128.797C129.106 66.1107 129.343 66.1926 129.506 66.357C129.688 66.5036 129.807 66.6772 129.861 66.8782L136.244 84.4758C136.28 84.549 136.298 84.631 136.298 84.7226C136.298 84.8687 136.235 85.0056 136.108 85.1334C135.998 85.2433 135.862 85.2983 135.698 85.2983H132.343C132.07 85.2983 131.862 85.2341 131.716 85.1064C131.589 84.9598 131.507 84.832 131.471 84.7226L130.406 81.9263H123.124L122.087 84.7226C122.051 84.832 121.969 84.9598 121.842 85.1064C121.714 85.2341 121.496 85.2983 121.187 85.2983H117.832ZM124.242 77.9791H129.315L126.752 70.7429L124.242 77.9791ZM139.13 85.2983C138.948 85.2983 138.785 85.2341 138.64 85.1064C138.512 84.9781 138.449 84.8137 138.449 84.6127V66.7957C138.449 66.5947 138.512 66.4303 138.64 66.3025C138.785 66.1743 138.948 66.1107 139.13 66.1107H142.076C142.367 66.1107 142.585 66.1926 142.731 66.357C142.895 66.5036 142.994 66.6222 143.031 66.7133L147.831 75.3751L152.632 66.7133C152.687 66.6222 152.778 66.5036 152.905 66.357C153.051 66.1926 153.278 66.1107 153.587 66.1107H156.506C156.706 66.1107 156.869 66.1743 156.996 66.3025C157.142 66.4303 157.215 66.5947 157.215 66.7957V84.6127C157.215 84.8137 157.142 84.9781 156.996 85.1064C156.869 85.2341 156.706 85.2983 156.506 85.2983H153.259C153.059 85.2983 152.887 85.2341 152.741 85.1064C152.614 84.9781 152.55 84.8137 152.55 84.6127V74.3338L149.468 80.0624C149.395 80.2273 149.287 80.3734 149.141 80.5011C148.995 80.6289 148.795 80.693 148.541 80.693H147.122C146.868 80.693 146.668 80.6289 146.522 80.5011C146.377 80.3734 146.259 80.2273 146.168 80.0624L143.086 74.3338V84.6127C143.086 84.8137 143.022 84.9781 142.895 85.1064C142.767 85.2341 142.603 85.2983 142.403 85.2983H139.13Z" fill="#D2AB67"/>
</g>
<defs>
<clipPath id="clip0_234_538">
<rect width="175" height="85" fill="white" transform="translate(0 0.5)"/>
</clipPath>
</defs>
</svg>
