<svg width="30" height="30" viewBox="0 0 30 30" fill="none" xmlns="http://www.w3.org/2000/svg">
<g id="Solid/Brands/Whatsapp">
<path id="Subtract" d="M12.2872 9.31091L12.2874 9.31158C12.4507 9.67539 12.722 10.3361 12.9393 10.8653L12.9428 10.8737C13.0283 11.0821 13.1057 11.2704 13.166 11.4154C13.1962 11.488 13.2216 11.5483 13.2413 11.5943C13.2511 11.6172 13.2591 11.6355 13.2653 11.6493C13.2721 11.6646 13.2745 11.6693 13.2736 11.6676L12.8268 11.892M12.2872 9.31091L21.9817 17.6868C21.9817 17.6867 21.9817 17.6867 21.9816 17.6866C21.8877 17.5284 21.7517 17.4311 21.6519 17.3702C21.5558 17.3115 21.4418 17.2569 21.3411 17.2086L21.3276 17.2021L21.1114 17.653L21.3276 17.2021C21.2722 17.1756 21.2159 17.1486 21.1562 17.1188L21.1561 17.1188C20.9931 17.0377 20.515 16.8028 20.0403 16.5743C19.58 16.3527 19.0827 16.1173 18.9069 16.0517L18.9069 16.0517L18.9068 16.0517C18.7692 16.0004 18.5329 15.9122 18.2793 15.9421C17.9733 15.9781 17.7516 16.1622 17.5929 16.4023C17.3954 16.6933 16.8049 17.3825 16.6094 17.6094L16.6094 17.6095C16.6093 17.6096 16.6092 17.6097 16.6091 17.6097C16.5867 17.6022 16.555 17.5894 16.5122 17.5681C16.4475 17.5359 16.3656 17.5006 16.286 17.4662L16.2761 17.462L16.275 17.4615C15.8391 17.2734 15.0013 16.9119 14.0312 16.0482L14.0303 16.0475C13.1414 15.2597 12.5277 14.2748 12.344 13.9594C12.346 13.9572 12.3482 13.9549 12.3505 13.9525C12.3646 13.9377 12.3802 13.922 12.4003 13.902L12.4005 13.9018C12.5084 13.7943 12.627 13.651 12.726 13.5313L12.7357 13.5196L12.3505 13.2009L12.7357 13.5196C12.7971 13.4454 12.8536 13.3771 12.907 13.3159L12.9071 13.3158C13.0932 13.1021 13.1775 12.9271 13.2625 12.7506L13.2666 12.7421L13.2666 12.7421L13.3009 12.6712C13.502 12.2591 13.3898 11.8989 13.2736 11.6675L12.8268 11.892M12.2872 9.31091C12.1423 8.9893 11.9608 8.75037 11.7156 8.60821C11.48 8.47163 11.2486 8.46574 11.1324 8.46278C11.1291 8.4627 11.1258 8.46262 11.1227 8.46253M12.2872 9.31091L11.1227 8.46253M12.8268 11.892C12.9072 12.052 12.9566 12.2366 12.8515 12.4519L11.1078 8.96231C11.3365 8.96844 11.59 8.98081 11.8313 9.51628C11.9912 9.87274 12.2607 10.5289 12.4802 11.0635L12.4802 11.0636L12.4803 11.0637C12.6511 11.4796 12.7916 11.8219 12.8268 11.892ZM11.1227 8.46253C10.9293 8.45618 10.7068 8.45618 10.4948 8.45618H10.4894C10.1586 8.45618 9.67026 8.57738 9.26332 9.01619C9.24766 9.03307 9.22991 9.05184 9.20829 9.07468L9.20828 9.07469C8.84734 9.45616 8.00446 10.3507 8.00446 12.0336C8.00446 12.923 8.32364 13.77 8.64443 14.404C8.96861 15.0446 9.3166 15.5103 9.41413 15.6408L9.41418 15.6408L9.41422 15.6409L9.4207 15.6496C9.42066 15.6495 9.42077 15.6497 9.42105 15.6501C9.42218 15.6516 9.42611 15.6572 9.43437 15.6693L9.47314 15.7264L9.88727 15.4462L9.47315 15.7264L9.47889 15.7349C9.89372 16.3481 11.9655 19.4106 15.1419 20.6597C16.3875 21.15 17.2116 21.3849 17.8083 21.485C18.4235 21.5881 18.7857 21.5455 19.0799 21.5099C19.1384 21.5029 19.1877 21.4969 19.236 21.4924C19.2362 21.4923 19.2364 21.4923 19.2365 21.4923L19.1896 20.9945M11.1227 8.46253L21.3662 19.4682C21.0942 20.2191 19.7832 20.9391 19.1896 20.9945M19.1896 20.9945C19.1334 20.9998 19.0775 21.0066 19.0199 21.0135L19.0199 21.0136C18.4759 21.0794 17.7853 21.1629 15.3249 20.1944L19.1896 20.9945ZM9.33628 25.3369C9.22477 25.2765 9.09448 25.2608 8.97178 25.2928L3.2126 26.7971L4.75087 21.2134C4.78647 21.0842 4.76868 20.946 4.7015 20.83C3.65509 19.0233 3.10472 16.9745 3.10547 14.8894V14.8892C3.10547 8.33607 8.4692 3 15.0528 3C18.2536 3 21.2495 4.24013 23.5055 6.48551C25.7608 8.7304 27.0004 11.7171 27.0004 14.8953C27.0004 21.4483 21.6366 26.7844 15.0529 26.7844H15.0468C13.0464 26.7844 11.0814 26.2822 9.33628 25.3369Z" fill="white" stroke="white" stroke-linejoin="round"/>
</g>
</svg>
