<svg width="30" height="30" viewBox="0 0 30 30" fill="none" xmlns="http://www.w3.org/2000/svg">
<g id="Solid/Brands/Telegram">
<path id="Subtract" fill-rule="evenodd" clip-rule="evenodd" d="M23.1049 24.7376L23.1057 24.7354L23.1275 24.6811L26.876 5.78222V5.72084C26.876 5.24996 26.702 4.83889 26.3234 4.59231C25.992 4.37648 25.611 4.36111 25.3439 4.38139C25.0614 4.40283 24.795 4.47335 24.6106 4.53205C24.5157 4.56225 24.4363 4.59135 24.3795 4.61336C24.351 4.6244 24.3279 4.63378 24.3111 4.64076L24.2946 4.64771L3.39481 12.8464L3.38906 12.8484C3.37777 12.8525 3.36284 12.8581 3.34481 12.8651C3.30887 12.8791 3.25995 12.8991 3.20247 12.9252C3.08962 12.9763 2.9337 13.0553 2.77557 13.1636C2.50701 13.3475 1.99561 13.7829 2.08197 14.4732C2.15349 15.0449 2.54762 15.408 2.81333 15.596C2.95577 15.6968 3.09203 15.7695 3.19182 15.817C3.24238 15.8411 3.28533 15.8595 3.31731 15.8725C3.33335 15.8791 3.34675 15.8843 3.35713 15.8882L3.37041 15.8932L3.3789 15.8963L7.03545 17.1273C7.02311 17.3568 7.04586 17.5907 7.1067 17.8215L8.93831 24.7695C9.15548 25.5933 9.90076 26.1671 10.7527 26.1665C11.5164 26.166 12.1937 25.704 12.4814 25.0147L15.341 21.9571L20.2522 25.7224L20.3221 25.7529C20.7683 25.9476 21.1852 26.0093 21.5663 25.9572C21.9469 25.9052 22.2494 25.7456 22.4766 25.5638C22.7002 25.385 22.8534 25.1831 22.9498 25.0311C22.9987 24.9539 23.0352 24.886 23.0605 24.8349C23.0732 24.8093 23.0833 24.7876 23.0908 24.7707L23.1002 24.7489L23.1035 24.7409L23.1049 24.7376ZM8.9197 17.3435C8.87807 17.1856 8.94343 17.0189 9.08128 16.9314L21.4838 9.05521C21.4838 9.05521 22.2133 8.61234 22.1872 9.05521C22.1872 9.05521 22.3174 9.13342 21.9265 9.49808C21.5557 9.84443 13.0869 18.0208 12.23 18.8481C12.1805 18.8959 12.151 18.9506 12.1336 19.0172L10.7513 24.2915L8.9197 17.3435Z" fill="white"/>
</g>
</svg>
