<svg width="30" height="30" viewBox="0 0 30 30" fill="none" xmlns="http://www.w3.org/2000/svg">
<g id="Solid/Brands/Vk">
<path id="Vector" d="M26.8793 22.9762H24.0274C22.9485 22.9762 22.624 22.1025 20.6888 20.1673C19 18.5391 18.2865 18.3358 17.8585 18.3358C17.2681 18.3358 17.1059 18.498 17.1059 19.3131V21.8777C17.1059 22.5716 16.8811 22.9782 15.0691 22.9782C13.3106 22.86 11.6053 22.3257 10.0937 21.4194C8.58205 20.513 7.3074 19.2605 6.37468 17.765C4.16036 15.0089 2.61962 11.7742 1.875 8.31803C1.875 7.88995 2.03724 7.50293 2.85234 7.50293H5.70227C6.43528 7.50293 6.69916 7.82936 6.9865 8.58191C8.37042 12.6555 10.7317 16.1974 11.6895 16.1974C12.0569 16.1974 12.2172 16.0351 12.2172 15.1184V10.9236C12.096 9.00999 11.0796 8.84775 11.0796 8.15579C11.0927 7.97328 11.1763 7.80303 11.3128 7.68115C11.4493 7.55927 11.6278 7.49534 11.8107 7.50293H16.2908C16.9026 7.50293 17.1059 7.80786 17.1059 8.54086V14.2016C17.1059 14.8134 17.3698 15.0167 17.5535 15.0167C17.921 15.0167 18.2044 14.8134 18.8768 14.141C20.3211 12.3798 21.5011 10.4175 22.3796 8.31608C22.4694 8.06365 22.6394 7.84754 22.8635 7.70073C23.0876 7.55391 23.3536 7.48444 23.6209 7.50293H26.4727C27.3269 7.50293 27.5087 7.931 27.3269 8.54086C26.29 10.8639 25.0069 13.069 23.4997 15.1184C23.1928 15.5875 23.0696 15.8318 23.4997 16.3811C23.7831 16.8092 24.7819 17.6438 25.4544 18.4374C26.4315 19.4121 27.243 20.5398 27.8567 21.776C28.101 22.5696 27.6925 22.9762 26.8793 22.9762Z" fill="white"/>
</g>
</svg>
